<svg width="60" height="60" viewBox="0 0 60 60" fill="none" xmlns="http://www.w3.org/2000/svg">
<path d="M15.9375 50.625H14.8706C15.5662 49.5611 15.9369 48.3177 15.9375 47.0466V44.6888C15.9379 44.1704 15.8521 43.6556 15.6834 43.1654L12.7837 34.7344C12.6595 34.2709 12.419 33.8468 12.085 33.5022C11.7509 33.1577 11.3345 32.9042 10.875 32.7657L12.6422 26.1629C12.7969 25.6032 12.7724 25.0091 12.5724 24.464C12.3723 23.919 12.0066 23.4502 11.5266 23.1235C11.2716 22.9403 10.9858 22.8044 10.6828 22.7222C10.4391 22.6519 10.1865 22.6168 9.93281 22.6182C9.32032 22.6125 8.72307 22.8091 8.23383 23.1777C7.74459 23.5462 7.39072 24.066 7.22719 24.6563L2.22469 40.0313C1.97293 40.8131 1.92899 41.647 2.09719 42.451L3.54281 48.0685C3.68008 48.6014 3.74969 49.1494 3.75 49.6997V50.625H2.8125C2.56386 50.625 2.3254 50.7238 2.14959 50.8996C1.97377 51.0754 1.875 51.3139 1.875 51.5625V57.1875C1.875 57.4362 1.97377 57.6746 2.14959 57.8505C2.3254 58.0263 2.56386 58.125 2.8125 58.125H15.9375C16.1861 58.125 16.4246 58.0263 16.6004 57.8505C16.7762 57.6746 16.875 57.4362 16.875 57.1875V51.5625C16.875 51.3139 16.7762 51.0754 16.6004 50.8996C16.4246 50.7238 16.1861 50.625 15.9375 50.625ZM5.35875 47.5969L3.92437 42.0291C3.82967 41.5557 3.85841 41.066 4.00781 40.6069L9.02625 25.1813C9.05813 25.0631 9.11313 24.9523 9.18807 24.8555C9.26301 24.7587 9.35641 24.6777 9.46286 24.6172C9.56931 24.5567 9.6867 24.5179 9.80824 24.503C9.92978 24.4882 10.0531 24.4976 10.1709 24.5307C10.2745 24.5574 10.3719 24.6038 10.4578 24.6675C10.6187 24.7754 10.7415 24.9311 10.8088 25.1127C10.8761 25.2943 10.8845 25.4925 10.8328 25.6791L8.89687 32.9063C8.40638 33.1275 7.99045 33.4861 7.69931 33.9386C7.40817 34.3911 7.25429 34.9182 7.25625 35.4563C7.2526 35.7023 7.28417 35.9476 7.35 36.1847L9.04687 42.5241C9.11127 42.7643 9.26845 42.9691 9.48382 43.0934C9.69919 43.2177 9.95513 43.2513 10.1953 43.1869C10.4355 43.1225 10.6403 42.9653 10.7646 42.75C10.8889 42.5346 10.9225 42.2787 10.8581 42.0385L9.15844 35.6775C9.13889 35.6055 9.12974 35.531 9.13125 35.4563C9.12944 35.2639 9.18862 35.0759 9.30029 34.9193C9.41195 34.7627 9.57037 34.6454 9.75281 34.5844C9.77437 34.5769 9.86344 34.5469 9.8775 34.5441C10.123 34.4956 10.3778 34.5461 10.5863 34.6844C10.7949 34.8227 10.9404 35.0378 10.9913 35.2828L13.9097 43.7757C14.011 44.0694 14.0627 44.378 14.0625 44.6888V47.0466C14.0633 47.9723 13.7892 48.8774 13.275 49.6472L12.6234 50.625H5.625V49.6997C5.62468 48.9904 5.53523 48.2839 5.35875 47.5969ZM15 56.25H3.75V52.5H15V56.25Z" fill="#76BC21"/>
<path d="M43.125 51.5624V57.1874C43.125 57.4361 43.2238 57.6745 43.3996 57.8503C43.5754 58.0262 43.8139 58.1249 44.0625 58.1249H57.1875C57.4361 58.1249 57.6746 58.0262 57.8504 57.8503C58.0262 57.6745 58.125 57.4361 58.125 57.1874V51.5624C58.125 51.3138 58.0262 51.0753 57.8504 50.8995C57.6746 50.7237 57.4361 50.6249 57.1875 50.6249H56.25V49.6996C56.2499 49.1477 56.3195 48.5981 56.4572 48.0637L57.9028 42.4462C58.071 41.6422 58.0271 40.8083 57.7753 40.0265L52.7728 24.6562C52.6088 24.0674 52.2553 23.549 51.7671 23.1813C51.2789 22.8135 50.6831 22.6169 50.0719 22.6218C49.8182 22.6204 49.5656 22.6555 49.3219 22.7259C49.0189 22.8081 48.7331 22.944 48.4781 23.1271C47.9981 23.4538 47.6324 23.9226 47.4323 24.4677C47.2323 25.0128 47.2078 25.6068 47.3625 26.1665L49.125 32.7693C48.6655 32.9078 48.2491 33.1613 47.915 33.5059C47.581 33.8504 47.3405 34.2745 47.2162 34.738L44.3166 43.169C44.1483 43.658 44.0625 44.1715 44.0625 44.6887V47.0465C44.0631 48.3176 44.4338 49.561 45.1294 50.6249H44.0625C43.8139 50.6249 43.5754 50.7237 43.3996 50.8995C43.2238 51.0753 43.125 51.3138 43.125 51.5624ZM54.375 49.6996V50.6249H47.3766L46.725 49.6471C46.2108 48.8773 45.9367 47.9722 45.9375 47.0465V44.6887C45.9373 44.3779 45.989 44.0693 46.0903 43.7755L49.0088 35.2827C49.0596 35.0377 49.2051 34.8226 49.4137 34.6843C49.6222 34.5459 49.877 34.4955 50.1225 34.544C50.1366 34.544 50.2256 34.5768 50.2472 34.5843C50.4296 34.6453 50.588 34.7625 50.6997 34.9192C50.8114 35.0758 50.8706 35.2638 50.8687 35.4562C50.8703 35.5308 50.8611 35.6053 50.8416 35.6774L49.1381 42.0384C49.0737 42.2785 49.1074 42.5345 49.2317 42.7499C49.356 42.9652 49.5607 43.1224 49.8009 43.1868C50.0411 43.2512 50.2971 43.2175 50.5124 43.0932C50.7278 42.9689 50.885 42.7642 50.9494 42.524L52.6462 36.1846C52.7121 35.9475 52.7436 35.7022 52.74 35.4562C52.7423 34.9185 52.589 34.3917 52.2985 33.9392C52.0081 33.4867 51.5929 33.128 51.1031 32.9062L49.1681 25.678C49.1164 25.4914 49.1248 25.2932 49.1921 25.1117C49.2595 24.9301 49.3823 24.7743 49.5431 24.6665C49.629 24.6028 49.7264 24.5563 49.83 24.5296C49.9479 24.4965 50.0712 24.4871 50.1927 24.502C50.3142 24.5168 50.4316 24.5556 50.5381 24.6161C50.6445 24.6766 50.7379 24.7576 50.8129 24.8545C50.8878 24.9513 50.9428 25.062 50.9747 25.1802L55.9931 40.6059C56.1425 41.0649 56.1713 41.5547 56.0766 42.028L54.6422 47.5959C54.4653 48.2831 54.3756 48.9899 54.375 49.6996ZM45 52.4999H56.25V56.2499H45V52.4999Z" fill="#76BC21"/>
<path d="M45.375 8.51625L30.375 1.95376C30.2567 1.90213 30.1291 1.87549 30 1.87549C29.8709 1.87549 29.7433 1.90213 29.625 1.95376L14.625 8.51625C14.4579 8.58919 14.3157 8.70927 14.2158 8.8618C14.1159 9.01432 14.0626 9.19267 14.0625 9.37501V28.125C14.0625 28.2979 14.1103 28.4674 14.2006 28.6148C14.291 28.7623 14.4203 28.8818 14.5744 28.9603L29.5744 36.5916C29.7062 36.6587 29.852 36.6938 30 36.6938C30.1461 36.6935 30.2902 36.6595 30.4209 36.5944L45.4209 29.0569C45.5763 28.9788 45.7069 28.8591 45.7981 28.7111C45.8893 28.5631 45.9376 28.3926 45.9375 28.2188V9.37501C45.9374 9.19267 45.8841 9.01432 45.7842 8.8618C45.6843 8.70927 45.5421 8.58919 45.375 8.51625ZM30 3.83532L42.6609 9.37501L30 14.9147L26.7094 13.4747L31.7166 11.2838C31.8835 11.2107 32.0255 11.0905 32.1252 10.938C32.2249 10.7855 32.278 10.6072 32.278 10.425C32.278 10.2428 32.2249 10.0645 32.1252 9.91202C32.0255 9.75951 31.8835 9.63935 31.7166 9.56626L27.6938 7.81219C27.5755 7.76057 27.4478 7.73393 27.3187 7.73393C27.1897 7.73393 27.062 7.76057 26.9437 7.81219L20.3522 10.6931L17.3438 9.37501L30 3.83532ZM21.5625 13.2694L23.4375 14.0897V18.1706L21.5625 17.2331V13.2694ZM22.6875 11.7169L27.315 9.69469L28.9931 10.4269L24.375 12.4509L22.6875 11.7169ZM15.9375 10.8084L19.6875 12.4491V17.8125C19.6874 17.9867 19.7359 18.1575 19.8275 18.3057C19.919 18.4539 20.0501 18.5737 20.2059 18.6516L23.9559 20.5266C24.0989 20.598 24.2578 20.6317 24.4174 20.6245C24.5771 20.6173 24.7322 20.5693 24.8682 20.4853C25.0041 20.4012 25.1163 20.2838 25.194 20.1441C25.2718 20.0045 25.3126 19.8473 25.3125 19.6875V14.9063L29.0625 16.5469V34.2272L15.9375 27.5503V10.8084ZM30.9375 34.2356V16.5506L44.0625 10.8084V27.6403L30.9375 34.2356Z" fill="#76BC21"/>
<path d="M36.1481 27.4059L32.3916 29.294C32.1694 29.4059 32.0008 29.6015 31.9228 29.8377C31.8448 30.0739 31.8639 30.3314 31.9758 30.5536C32.0877 30.7757 32.2832 30.9443 32.5194 31.0223C32.7557 31.1003 33.0132 31.0812 33.2353 30.9693L36.9919 29.0812C37.214 28.9693 37.3827 28.7738 37.4606 28.5376C37.5386 28.3014 37.5196 28.0438 37.4077 27.8217C37.2958 27.5995 37.1002 27.4309 36.864 27.3529C36.6278 27.275 36.3703 27.294 36.1481 27.4059Z" fill="#76BC21"/>
<path d="M32.8125 27.3187C32.9584 27.3187 33.1022 27.2847 33.2325 27.2194L36.9357 25.3584C37.1578 25.2465 37.3264 25.051 37.4044 24.8148C37.4824 24.5786 37.4633 24.3211 37.3514 24.0989C37.2396 23.8767 37.044 23.7081 36.8078 23.6302C36.5716 23.5522 36.3141 23.5712 36.0919 23.6831L32.3897 25.5441C32.2013 25.639 32.0504 25.7948 31.9615 25.9861C31.8725 26.1775 31.8508 26.3933 31.8997 26.5985C31.9486 26.8038 32.0653 26.9866 32.231 27.1173C32.3966 27.248 32.6015 27.3189 32.8125 27.3187Z" fill="#76BC21"/>
</svg>
