<svg width="54" height="54" viewBox="0 0 54 54" fill="none" xmlns="http://www.w3.org/2000/svg">
<g clip-path="url(#clip0)">
<path d="M47.3021 3.92773H36.7343C36.2317 3.92773 35.8244 4.32801 35.8244 4.82175C35.8244 5.3155 36.2317 5.71577 36.7343 5.71577H47.3021C47.8048 5.71577 48.2121 5.3155 48.2121 4.82175C48.2121 4.32801 47.8048 3.92773 47.3021 3.92773Z" fill="#76BC21"/>
<path d="M47.3021 12.0986H41.2757C40.7731 12.0986 40.3657 12.4989 40.3657 12.9927C40.3657 13.4864 40.7731 13.8867 41.2757 13.8867H47.3021C47.8048 13.8867 48.2121 13.4864 48.2121 12.9927C48.2121 12.4989 47.8048 12.0986 47.3021 12.0986Z" fill="#76BC21"/>
<path d="M38.1681 12.0986H36.7345C36.2318 12.0986 35.8245 12.4989 35.8245 12.9927C35.8245 13.4864 36.2318 13.8867 36.7345 13.8867H38.1681C38.6708 13.8867 39.0781 13.4864 39.0781 12.9927C39.0781 12.4989 38.6708 12.0986 38.1681 12.0986Z" fill="#76BC21"/>
<path d="M47.3021 8.01318H46.3589C45.8562 8.01318 45.4489 8.41346 45.4489 8.9072C45.4489 9.40095 45.8562 9.80122 46.3589 9.80122H47.3021C47.8048 9.80122 48.2121 9.40095 48.2121 8.9072C48.2121 8.41346 47.8048 8.01318 47.3021 8.01318Z" fill="#76BC21"/>
<path d="M42.9621 8.01318H36.7346C36.2319 8.01318 35.8246 8.41346 35.8246 8.9072C35.8246 9.40095 36.2319 9.80122 36.7346 9.80122H42.9621C43.4647 9.80122 43.8721 9.40095 43.8721 8.9072C43.8721 8.41346 43.4647 8.01318 42.9621 8.01318Z" fill="#76BC21"/>
<path d="M48.8201 0H35.2164C33.1 0 31.3781 1.69167 31.3781 3.77099V13.7896C31.3781 15.869 33.0999 17.5606 35.2164 17.5606H37.0226L36.9218 19.8643C36.9072 20.1983 37.0834 20.5125 37.3791 20.6786C37.5192 20.7576 37.6751 20.7966 37.831 20.7966C38.0032 20.7966 38.1753 20.7486 38.3253 20.6532L43.1904 17.5606H48.8203C50.9368 17.5606 52.6587 15.869 52.6587 13.7896V3.77099C52.6584 1.69167 50.9366 0 48.8201 0ZM50.8386 13.7896C50.8386 14.883 49.9331 15.7726 48.8202 15.7726H42.9216C42.7463 15.7726 42.5746 15.8224 42.4272 15.916L38.8158 18.2118L38.8818 16.7049C38.8924 16.4614 38.8014 16.2243 38.6298 16.0482C38.4581 15.8722 38.2208 15.7726 37.9728 15.7726H35.2165C34.1036 15.7726 33.1982 14.883 33.1982 13.7896V3.77099C33.1982 2.6776 34.1036 1.78804 35.2165 1.78804H48.8202C49.9331 1.78804 50.8386 2.6776 50.8386 3.77099V13.7896Z" fill="#76BC21"/>
<path d="M30.2497 40.5548C29.1483 39.3892 27.7711 38.5457 26.2555 38.0858C26.7867 37.5409 27.2464 36.9302 27.6206 36.2674H28.0512C30.3271 36.2674 32.1787 34.4483 32.1787 32.2123V21.9919C32.1787 15.0545 26.4347 9.41052 19.3743 9.41052H14.6561C7.595 9.41052 1.85012 15.0544 1.85012 21.9919V30.3008C1.85012 31.7225 3.02736 32.8791 4.47439 32.8791C4.76433 32.8791 5.04635 32.8307 5.31382 32.7424C5.48953 34.7619 6.36218 36.6428 7.77177 38.0874C6.25703 38.5474 4.88045 39.3909 3.77967 40.5562C2.20724 42.2209 1.34134 44.3892 1.34134 46.6617V52.1588C1.34134 52.6525 1.74866 53.0526 2.25132 53.0526H31.7789C32.2815 53.0526 32.6889 52.6524 32.6889 52.1586V46.6614C32.6889 44.3883 31.8225 42.2194 30.2497 40.5548ZM26.9301 24.7836L23.2207 19.6827C23.0265 19.4156 22.6993 19.2743 22.3671 19.3154C22.0355 19.3563 21.7531 19.5725 21.6322 19.8786C20.8747 21.7932 19.5621 23.4185 17.8364 24.5787C16.1105 25.7388 14.093 26.352 12.0021 26.352H7.10014V22.3525C7.10014 17.9444 10.7503 14.3581 15.2372 14.3581H18.793C23.2798 14.3581 26.9302 17.9444 26.9302 22.3525V24.7836H26.9301ZM28.3918 34.4517C28.5573 33.895 28.6639 33.3241 28.7141 32.7425C28.9781 32.8305 29.2605 32.8789 29.5543 32.8789C29.8044 32.8789 30.0489 32.8432 30.2831 32.7769C30.0545 33.6485 29.3118 34.317 28.3918 34.4517ZM30.3586 30.3006C30.3586 30.3433 30.3554 30.3844 30.3482 30.4274C30.3216 30.5914 30.2434 30.7415 30.125 30.8585C29.9718 31.0083 29.7691 31.0909 29.5543 31.0909C29.1108 31.0909 28.7499 30.7364 28.7499 30.3006V25.8884C28.7499 25.4526 29.1108 25.0981 29.5543 25.0981C29.9978 25.0981 30.3586 25.4526 30.3586 25.8884V30.3006ZM5.28028 30.3006C5.28028 30.5116 5.19633 30.7107 5.04646 30.8586C4.89332 31.0084 4.69008 31.0909 4.47439 31.0909C4.0309 31.0909 3.66998 30.7364 3.66998 30.3006V25.8884C3.66998 25.4526 4.0309 25.0981 4.47439 25.0981C4.91873 25.0981 5.28028 25.4526 5.28028 25.8884V30.3006ZM5.28028 22.3525V23.4351C5.02621 23.3544 4.75557 23.3104 4.47439 23.3104C4.19385 23.3104 3.92374 23.3543 3.66998 23.4349V21.992C3.66998 16.0405 8.59822 11.1987 14.656 11.1987H19.3741C25.4309 11.1987 30.3585 16.0404 30.3585 21.992V23.4349C30.105 23.3545 29.8348 23.3105 29.5542 23.3105C29.2737 23.3105 29.0036 23.3545 28.7498 23.435V22.3528C28.7498 16.9588 24.2832 12.5705 18.7928 12.5705H15.237C9.74688 12.5702 5.28028 16.9585 5.28028 22.3525ZM7.10014 31.9849V30.3007V28.1402H12.0022C14.4617 28.1402 16.8344 27.4189 18.8642 26.0544C20.4458 24.9913 21.7322 23.596 22.6447 21.9663L26.9302 27.8593V31.9849C26.9302 32.8472 26.7714 33.6832 26.4623 34.4792H20.3223C19.8197 34.4792 19.4124 34.8795 19.4124 35.3733C19.4124 35.867 19.8197 36.2673 20.3223 36.2673H25.4495C24.9749 36.8751 24.4004 37.4056 23.7451 37.8348C23.2329 38.1727 22.6728 38.4447 22.0799 38.6432C22.0712 38.6458 22.0626 38.6486 22.0539 38.6513L18.0972 39.9609C17.4046 40.1906 16.6267 40.1907 15.931 39.9607L11.9749 38.6512C11.3745 38.4525 10.8047 38.1778 10.2818 37.8348C8.28951 36.5276 7.10014 34.3406 7.10014 31.9849ZM22.3761 44.908L17.9251 42.5544V41.8432C18.1808 41.7988 18.4327 41.7367 18.6788 41.6551L21.6305 40.6783L22.3761 44.908ZM16.1053 41.8432V42.5544L11.6542 44.9079L12.3998 40.6786L15.3502 41.6551C15.5971 41.7367 15.8494 41.7988 16.1053 41.8432ZM16.1054 51.2648H3.16131V46.6614C3.16131 43.0322 5.96646 39.9529 9.59944 39.5261C9.9401 39.7291 10.2946 39.9096 10.6607 40.0667L9.54174 46.4138C9.48226 46.7509 9.62391 47.0918 9.90646 47.2919C10.0646 47.4037 10.251 47.4604 10.4384 47.4604C10.5862 47.4604 10.7345 47.4252 10.8697 47.3536L13.0233 46.215L16.1053 49.2419V51.2648H16.1054ZM14.6964 45.3298L17.0152 44.1037L19.3338 45.3298L17.0152 47.607L14.6964 45.3298ZM30.869 51.2647H17.9251V49.2415L21.007 46.2147L23.1605 47.3535C23.2958 47.425 23.444 47.4603 23.5919 47.4603C23.7793 47.4603 23.9658 47.4036 24.1239 47.2918C24.4064 47.0919 24.548 46.751 24.4886 46.4139L23.3695 40.0667C23.7366 39.909 24.0912 39.728 24.4306 39.525C28.064 39.953 30.869 43.0323 30.869 46.6616V51.2647Z" fill="#76BC21"/>
</g>
<defs>
<clipPath id="clip0">
<rect width="54" height="53.0526" fill="white"/>
</clipPath>
</defs>
</svg>
